<?xml version="1.0" encoding="UTF-8"?>
<svg width="86px" height="22px" viewBox="0 0 947 244" version="1.1" xmlns="http://www.w3.org/2000/svg" xmlns:xlink="http://www.w3.org/1999/xlink">
    <title>Group</title>
    <g id="Page-1" stroke="none" stroke-width="1" fill="none" fill-rule="evenodd">
        <g id="Artboard-Copy" transform="translate(-205.000000, -181.000000)" fill="#000000" fill-rule="nonzero">
            <g id="Group" transform="translate(205.000000, 181.000000)">
                <polygon id="Path" points="541.002 157.1904 541.002 197.0524 375.1 197.0524 375.1 46.965 421.747 46.965 421.747 157.1904"></polygon>
                <path d="M946,46.5471 L883.692,46.5471 L836.627,93.6794 L789.813,46.5471 L680.859,46.5471 L680.859,121.3404 C680.859,139.5574 675.164,158.8624 634.212,158.8624 C593.26,158.8624 587.565,139.8084 587.565,121.3404 L587.565,46.5471 L541.002,46.5471 L541.002,121.3404 C541.002,173.6534 568.973,198.7234 634.296,198.7234 C699.367,198.7234 727.589,173.4024 727.589,121.3404 L727.589,49.472 C727.589,48.4692 728.761,47.9678 729.515,48.6363 L804.301,121.5074 L727.338,196.4674 L789.896,196.4674 L836.711,149.3354 L883.776,196.4674 L946.084,196.4674 L869.372,121.5074 L946,46.5471 Z" id="Path"></path>
                <path d="M0,1.42108547e-14 L140.945,243.5994 L281.807,1.42108547e-14 L0,1.42108547e-14 Z M55.4402,31.0872 L226.367,31.0872 L140.945,178.7514 L55.4402,31.0872 Z" id="Shape"></path>
            </g>
        </g>
    </g>
</svg>
